# xmcd
#
# Track frame offsets:
#	150
#	29372
#	42015
#	54595
#	71175
#	85905
#	99492
#	108012
#	118542
#	141927
#	160217
#	172887
#	179285
#	192132
#	208675
#	220692
#	230350
#	241940
#	261957
#	267265
#	283620
#	312960
#
# Disc length: 4414 seconds
#
# Revision: 1
# Processed by: cddbd v1.4PL0 Copyright (c) Steve Scherf et al.
# Submitted via: EasyCDDAExtractor 5.0.6
#
DISCID=34113c16
DTITLE=Various Artist - Living Country Blues [CD1] - Mississippi Moan
DYEAR=1999
DGENRE=Blues
TTITLE0=James "Son" Thomas - Catfish Blues
TTITLE1=Arzo Youngblood - Bye Bye Blues - Arzo Youngblood
TTITLE2=Eddie Cusic - Gonna Cut You Loose
TTITLE3=Boyd Rivers - You Gonna Take Sick And Die
TTITLE4=Boogie Bill Webb - Maggie Campbell Blues
TTITLE5=Sam Chatmon - Sitting On Top Of The World
TTITLE6=Cora Fluker - Move Daniel
TTITLE7=Othar Turner - My Babe
TTITLE8=Lonnie Pitchford - Boogie Chillen
TTITLE9=James "Son" Thomas - Bull Cow Blues
TTITLE10=Sam Chatmon - Stop And Listen Blues
TTITLE11=Arzo Youngblood - Swing, Swing
TTITLE12=Stonewall Mays - Jazz Boogie Woogie
TTITLE13=Boyd Rivers - Jesus Is On The Mainline
TTITLE14=Lonnie Pitchford - Shake Your Moneymaker
TTITLE15=James "Son" Thomas - Rock Me Mama
TTITLE16=Boogie Bill Webb - Big Road Blues
TTITLE17=Sam Chatmon - My Daddy Was A Jockey
TTITLE18=Napoleon Strickland - That´s The Boogie
TTITLE19=Sam Chatmon - Vicksburg Blues
TTITLE20=Walter Brown - Mississippi Moan
TTITLE21=Othar Turner - When I Lay My Burden Down
EXTD=
EXTT0=
EXTT1=
EXTT2=
EXTT3=
EXTT4=
EXTT5=
EXTT6=
EXTT7=
EXTT8=
EXTT9=
EXTT10=
EXTT11=
EXTT12=
EXTT13=
EXTT14=
EXTT15=
EXTT16=
EXTT17=
EXTT18=
EXTT19=
EXTT20=
EXTT21=
PLAYORDER=
